<svg xmlns="http://www.w3.org/2000/svg" width="512" height="512" viewBox="0 0 512 512" version="1.1">
	<path d="M 108.962 122.250 C 102.276 125.621, 100 130.800, 100 142.640 L 100 151.856 85.168 152.178 C 70.838 152.489, 70.217 152.591, 66.809 155.194 C 60.193 160.246, 60 161.354, 60 194.401 L 60 224 56.366 224 C 49.708 224, 44.735 226.197, 39.466 231.466 C 33.140 237.792, 32 241.538, 32 256 C 32 270.462, 33.140 274.208, 39.466 280.534 C 44.735 285.803, 49.708 288, 56.366 288 L 60 288 60 317.599 C 60 350.646, 60.193 351.754, 66.809 356.806 C 70.217 359.409, 70.838 359.511, 85.168 359.822 L 100 360.144 100 369.360 C 100 381.200, 102.276 386.379, 108.962 389.750 C 113.111 391.842, 114.724 392, 132 392 C 149.276 392, 150.889 391.842, 155.038 389.750 C 158.298 388.106, 160.106 386.298, 161.750 383.038 C 163.985 378.607, 164 378.265, 164 333.288 L 164 288 256 288 L 348 288 348 333.288 C 348 378.265, 348.015 378.607, 350.250 383.038 C 351.894 386.298, 353.702 388.106, 356.962 389.750 C 361.111 391.842, 362.724 392, 380 392 C 397.276 392, 398.889 391.842, 403.038 389.750 C 409.724 386.379, 412 381.200, 412 369.360 L 412 360.144 426.832 359.822 C 441.162 359.511, 441.783 359.409, 445.191 356.806 C 451.807 351.754, 452 350.646, 452 317.599 L 452 288 455.634 288 C 462.292 288, 467.265 285.803, 472.534 280.534 C 478.860 274.208, 480 270.462, 480 256 C 480 241.538, 478.860 237.792, 472.534 231.466 C 467.265 226.197, 462.292 224, 455.634 224 L 452 224 452 194.401 C 452 161.354, 451.807 160.246, 445.191 155.194 C 441.783 152.591, 441.162 152.489, 426.832 152.178 L 412 151.856 412 142.640 C 412 130.800, 409.724 125.621, 403.038 122.250 C 398.889 120.158, 397.276 120, 380 120 C 362.724 120, 361.111 120.158, 356.962 122.250 C 353.702 123.894, 351.894 125.702, 350.250 128.962 C 348.015 133.393, 348 133.735, 348 178.712 L 348 224 256 224 L 164 224 164 178.712 C 164 133.735, 163.985 133.393, 161.750 128.962 C 160.106 125.702, 158.298 123.894, 155.038 122.250 C 150.889 120.158, 149.276 120, 132 120 C 114.724 120, 113.111 120.158, 108.962 122.250 M 116 256 L 116 376 132 376 L 148 376 148 256 L 148 136 132 136 L 116 136 116 256 M 364 256 L 364 376 380 376 L 396 376 396 256 L 396 136 380 136 L 364 136 364 256 M 76 256 L 76 344 88 344 L 100 344 100 256 L 100 168 88 168 L 76 168 76 256 M 412 256 L 412 344 424 344 L 436 344 436 256 L 436 168 424 168 L 412 168 412 256 M 50.455 242.455 C 48.144 244.766, 48 245.558, 48 256 C 48 266.442, 48.144 267.234, 50.455 269.545 C 52.138 271.228, 54.024 272, 56.455 272 L 60 272 60 256 L 60 240 56.455 240 C 54.024 240, 52.138 240.772, 50.455 242.455 M 164 256 L 164 272 256 272 L 348 272 348 256 L 348 240 256 240 L 164 240 164 256 M 452 256 L 452 272 455.545 272 C 457.976 272, 459.862 271.228, 461.545 269.545 C 463.856 267.234, 464 266.442, 464 256 C 464 245.558, 463.856 244.766, 461.545 242.455 C 459.862 240.772, 457.976 240, 455.545 240 L 452 240 452 256" stroke="none" fill="#000000" fill-rule="evenodd"/>
</svg>